<?xml version="1.0" standalone="no"?><!DOCTYPE svg PUBLIC "-//W3C//DTD SVG 1.1//EN" "http://www.w3.org/Graphics/SVG/1.1/DTD/svg11.dtd"><svg t="1764038988038" class="icon" viewBox="0 0 1024 1024" version="1.1" xmlns="http://www.w3.org/2000/svg" p-id="5047" width="200" height="200" xmlns:xlink="http://www.w3.org/1999/xlink"><path d="M512 59.2c-251.2 0-452.8 203.2-452.8 452.8s203.2 452.8 452.8 452.8 452.8-203.2 452.8-452.8-201.6-452.8-452.8-452.8z m0 817.6c-200 0-363.2-163.2-363.2-363.2s163.2-363.2 363.2-363.2 363.2 163.2 363.2 363.2-163.2 363.2-363.2 363.2z" fill="#ffffff" p-id="5048"></path><path d="M430.4 681.6l64 64 232-232-232-233.6-64 64 168 169.6z" fill="#ffffff" p-id="5049"></path><path d="M462.4 310.4m-44.8 0a44.8 44.8 0 1 0 89.6 0 44.8 44.8 0 1 0-89.6 0Z" fill="#ffffff" p-id="5050"></path><path d="M462.4 715.2m-44.8 0a44.8 44.8 0 1 0 89.6 0 44.8 44.8 0 1 0-89.6 0Z" fill="#ffffff" p-id="5051"></path></svg>