<?xml version="1.0" standalone="no"?><!DOCTYPE svg PUBLIC "-//W3C//DTD SVG 1.1//EN" "http://www.w3.org/Graphics/SVG/1.1/DTD/svg11.dtd"><svg t="1768266431275" class="icon" viewBox="0 0 1405 1024" version="1.1" xmlns="http://www.w3.org/2000/svg" p-id="4871" xmlns:xlink="http://www.w3.org/1999/xlink" width="65.859375" height="48"><path d="M277.730375 7.035114C277.730375 7.035114 592.334558 399.438169 372.660815 822.326717 451.900273 783.242749 561.737143 728.525192 667.651268 676.152671 671.574013 628.470228 692.75684 168.061069 277.730375 7.035114L277.730375 7.035114Z" fill="rgb(0, 200, 232)" p-id="4872"></path><path d="M503.680512 114.90687C503.680512 114.90687 701.386881 233.722137 724.138803 647.230534 779.05724 620.653436 830.837479 594.858016 875.556776 573.752671 873.20313 495.584733 846.528459 209.490076 503.680512 114.90687L503.680512 114.90687Z" fill="rgb(0, 200, 232)" p-id="4873"></path><path d="M0 842.650381C0 842.650381 244.779314 923.945039 633.915658 842.650381 1045.019379 756.665648 1297.644181 857.50229 1360.408108 938.015267 1360.408108 938.015267 1164.270838 807.474808 760.228059 895.80458 426.010153 968.500762 163.970758 981.789313 0 842.650381L0 842.650381Z" fill="rgb(0, 200, 232)" p-id="4874"></path><path d="M633.915658 842.650381C804.162809 806.69313 947.735292 803.566414 1060.710359 817.636642 1020.698355 705.856489 1080.324087 590.167938 1088.954125 569.062596 1095.23052 554.210687 1109.352401 517.471756 1056.003063 534.668703 1015.991062 547.957251 589.196361 758.229007 349.90889 877.044274 433.855643 874.699238 528.786081 864.537404 633.915658 842.650381L633.915658 842.650381Z" fill="rgb(0, 200, 232)" p-id="4875"></path><path d="M462.88396 990.387785C462.88396 990.387785 625.285617 1059.175573 980.686354 998.20458 1208.205587 959.120609 1398.851013 997.422902 1398.851013 997.422902 1398.851013 997.422902 1188.591859 907.529772 907.723287 958.338932 677.065857 1000.549619 462.88396 990.387785 462.88396 990.387785L462.88396 990.387785Z" fill="rgb(0, 200, 232)" p-id="4876"></path></svg>